<?xml version="1.0" standalone="no"?>
<!DOCTYPE svg PUBLIC "-//W3C//DTD SVG 20010904//EN"
 "http://www.w3.org/TR/2001/REC-SVG-20010904/DTD/svg10.dtd">
<svg version="1.0" xmlns="http://www.w3.org/2000/svg"
 width="400.000000pt" height="400.000000pt" viewBox="0 0 400.000000 400.000000"
 preserveAspectRatio="xMidYMid meet">

<g transform="translate(0.000000,400.000000) scale(0.100000,-0.100000)"
fill="#000000" stroke="none">
<path d="M1135 3949 c-22 -28 -47 -64 -55 -80 -17 -32 -30 -38 -30 -12 0 9 -3
14 -6 11 -3 -4 -1 -23 5 -44 7 -24 7 -42 1 -49 -6 -7 -7 -15 -3 -18 3 -4 -2
-7 -11 -7 -13 0 -17 -6 -13 -20 4 -15 0 -20 -16 -20 -11 0 -28 7 -37 15 -14
13 -23 13 -46 5 l-29 -12 23 -18 c15 -13 18 -20 10 -23 -9 -4 -8 -6 3 -6 8 -1
20 4 27 11 24 24 13 -20 -12 -46 -28 -31 -36 -32 -36 -5 0 33 -15 14 -18 -23
-4 -45 -22 -62 -22 -19 0 37 -39 111 -59 111 -9 0 -11 -6 -6 -17 4 -10 10 -37
12 -60 3 -24 9 -40 14 -37 5 3 9 -11 9 -30 0 -20 3 -36 8 -36 4 0 12 -11 18
-24 9 -20 7 -29 -14 -56 -23 -29 -23 -31 -5 -21 18 9 20 8 16 -9 -3 -11 -10
-20 -15 -20 -6 0 -8 -7 -4 -15 3 -8 2 -24 -2 -36 -8 -20 -9 -20 -25 -4 -9 9
-17 12 -17 6 0 -5 5 -13 10 -16 6 -3 10 -11 10 -16 0 -6 -4 -7 -10 -4 -5 3
-10 2 -10 -4 0 -5 5 -13 10 -16 6 -4 8 -11 4 -16 -3 -5 0 -16 6 -24 9 -11 9
-15 1 -15 -6 0 -11 5 -11 12 0 6 -3 9 -6 6 -3 -4 0 -17 7 -30 7 -12 12 -34 10
-48 -3 -29 14 -17 22 15 4 16 5 14 6 -6 1 -34 -26 -59 -41 -38 -7 10 -8 3 -4
-24 4 -32 3 -37 -9 -27 -19 16 -23 -3 -18 -80 4 -48 1 -70 -10 -85 -13 -17
-17 -17 -32 -5 -16 13 -17 9 -13 -56 3 -68 2 -70 -19 -66 -19 4 -23 11 -23 43
0 32 -3 39 -20 39 -11 0 -20 7 -20 15 0 11 -11 15 -40 15 -22 0 -40 -5 -40
-10 0 -7 -6 -7 -19 -1 -14 8 -22 7 -30 -3 -6 -7 -8 -15 -5 -19 3 -3 3 -40 -1
-81 -6 -57 -11 -76 -22 -76 -13 0 -14 13 -8 80 6 70 5 80 -9 80 -12 0 -16 -10
-16 -40 0 -22 -4 -40 -10 -40 -5 0 -10 18 -10 40 0 33 -3 40 -20 40 -16 0 -20
7 -20 35 0 34 -40 95 -62 95 -5 0 -6 -29 -2 -65 6 -62 6 -65 -15 -65 -20 0
-21 -5 -21 -80 0 -79 0 -80 -25 -80 -16 0 -25 -6 -25 -15 0 -11 11 -15 38 -15
32 0 40 -5 55 -32 13 -26 15 -42 8 -71 -12 -49 -14 -51 -40 -35 -17 10 -25 10
-41 0 -18 -11 -20 -10 -20 18 0 34 -30 70 -60 70 -24 0 -28 -45 -5 -54 19 -7
19 -26 0 -26 -8 0 -15 -7 -15 -15 0 -11 -12 -15 -45 -15 -31 0 -47 -5 -51 -15
-8 -20 -34 -19 -50 3 -11 14 -13 15 -14 2 0 -9 5 -21 12 -28 9 -9 9 -12 0 -12
-9 0 -12 -33 -12 -120 l0 -120 39 0 c40 0 40 0 44 -42 l4 -43 1 43 c2 40 4 42
32 42 28 0 30 -2 31 -42 1 -24 3 -35 6 -25 3 12 15 17 44 17 21 0 39 5 39 10
0 6 -18 10 -40 10 -34 0 -40 3 -40 21 0 18 5 20 47 18 30 -2 48 1 51 9 6 18
33 15 48 -5 13 -17 13 -17 14 0 0 9 3 17 6 17 4 0 13 -8 20 -17 13 -17 15 -17
27 -1 9 11 21 15 37 11 15 -4 25 -1 32 11 5 9 16 16 23 16 8 0 15 8 15 18 1
12 5 9 16 -10 20 -37 30 -35 54 10 17 31 19 33 14 10 l-6 -28 76 0 c44 0 76
-4 76 -10 0 -5 3 -10 8 -10 4 0 5 43 4 95 -4 91 -3 97 27 145 17 28 31 54 31
58 0 20 77 10 113 -15 72 -50 91 -112 88 -288 -2 -55 -7 -105 -13 -112 -5 -7
-11 -58 -13 -114 -2 -70 0 -98 6 -88 8 11 9 9 5 -6 -3 -11 -8 -38 -12 -60 -4
-22 -12 -43 -18 -47 -14 -10 -73 1 -108 19 -16 7 -28 9 -28 4 0 -5 4 -11 10
-13 5 -2 7 -19 3 -41 -4 -26 -9 -34 -14 -25 -6 8 -9 1 -9 -22 -1 -29 -3 -32
-13 -20 -12 16 -58 21 -68 8 -3 -5 -14 -1 -25 7 -16 13 -16 14 -1 9 9 -3 17
-1 17 5 0 6 -4 11 -10 11 -5 0 -10 16 -10 35 0 23 -7 41 -20 53 -12 9 -22 15
-24 12 -2 -3 -12 2 -22 11 -24 20 -62 30 -70 18 -3 -6 -26 -9 -52 -7 -39 3
-48 0 -57 -18 -6 -12 -17 -29 -24 -38 -8 -9 -11 -19 -7 -23 3 -3 6 -1 6 5 0
23 18 12 28 -18 12 -32 60 -67 105 -77 20 -4 25 -9 17 -18 -13 -16 0 -28 16
-14 9 7 12 6 9 -8 -1 -10 -8 -17 -14 -15 -18 4 -13 -37 8 -59 11 -12 22 -32
26 -46 9 -37 87 -133 107 -133 31 0 19 -26 -24 -55 -24 -16 -62 -41 -85 -57
-22 -15 -58 -34 -80 -41 -42 -14 -45 -25 -20 -92 15 -39 14 -40 -16 -85 -51
-73 -96 -113 -167 -146 -19 -9 -55 -31 -80 -49 -25 -18 -68 -44 -96 -58 -39
-20 -60 -39 -83 -77 -17 -27 -38 -50 -46 -50 -13 0 -15 -46 -15 -365 l0 -365
1983 0 c1559 1 1978 3 1961 13 -52 31 -183 139 -188 155 -8 25 -66 80 -106
100 -19 9 -51 42 -73 74 -21 32 -67 80 -101 107 -84 67 -143 138 -191 230 -37
71 -44 78 -101 106 -48 23 -72 44 -107 90 -25 33 -62 78 -82 100 -21 22 -43
59 -50 83 -7 24 -19 50 -25 58 -13 14 -94 54 -112 54 -11 0 -108 71 -126 93
-12 14 -11 21 5 49 10 18 22 36 26 39 4 3 5 14 1 24 -5 13 -4 16 5 10 10 -6
12 0 6 23 -3 18 -2 33 4 37 6 3 11 17 11 31 0 28 -30 33 -50 9 -7 -9 -21 -13
-31 -10 -11 4 -19 2 -19 -4 0 -6 -4 -11 -10 -11 -5 0 -10 7 -10 15 0 8 -7 15
-16 15 -8 0 -13 -4 -9 -10 3 -5 3 -21 -1 -35 -4 -18 -9 -23 -14 -15 -5 7 -19
11 -34 8 -27 -5 -40 4 -50 38 -5 16 0 23 21 33 22 10 24 14 12 22 -21 13 -33
11 -55 -9 -41 -37 -104 -54 -104 -27 0 19 -5 19 -35 -1 -22 -15 -25 -14 -63
20 -34 31 -46 36 -90 36 -28 0 -63 -5 -77 -10 -24 -9 -25 -11 -11 -26 9 -8 20
-12 26 -9 5 3 10 2 10 -4 0 -10 -37 -34 -55 -36 -27 -2 -75 -17 -75 -24 0 -4
-15 -7 -32 -6 -18 1 -36 -3 -40 -9 -5 -8 -12 -8 -25 0 -18 11 -49 2 -64 -20
-4 -4 -10 -3 -13 3 -11 17 -22 13 -52 -14 -15 -14 -36 -25 -46 -25 -11 0 -26
-7 -34 -15 -19 -18 -84 -158 -84 -179 0 -17 -30 -36 -58 -36 -10 0 -29 11 -42
25 -13 14 -31 25 -40 25 -20 0 -190 168 -190 188 0 5 -9 17 -21 28 -12 10 -27
31 -35 46 -8 16 -21 28 -29 28 -9 0 -15 9 -15 21 0 11 -9 32 -20 46 -11 14
-20 34 -20 44 0 10 -7 22 -16 27 -12 7 -13 11 -5 17 9 5 9 10 -1 18 -19 17
-39 78 -33 106 2 12 -2 60 -9 104 -10 60 -12 127 -7 247 6 156 8 169 38 240
18 41 45 124 62 184 32 117 44 135 99 162 66 31 100 65 107 106 5 28 3 42 -10
55 -11 10 -13 19 -7 21 16 5 3 32 -16 32 -12 0 -14 11 -9 67 4 38 11 69 17 71
5 2 10 8 10 13 0 6 -5 7 -12 3 -8 -5 -9 -2 -5 11 4 9 2 25 -5 33 -11 13 -10
15 6 9 15 -6 17 -3 12 16 -3 13 1 32 8 43 7 10 17 37 21 59 4 22 10 34 12 28
7 -18 21 -16 51 8 l27 22 -30 -7 -30 -7 25 23 c25 25 111 57 165 64 56 6 140
22 128 23 -24 2 -13 21 11 21 14 0 28 5 32 11 5 8 29 10 75 6 41 -3 69 -2 69
4 0 5 13 9 29 9 17 0 33 5 37 11 3 6 16 8 28 5 11 -4 41 -9 66 -11 25 -3 54
-9 65 -14 11 -5 40 -14 65 -20 42 -11 109 -40 120 -51 3 -3 24 -20 47 -38 36
-28 48 -32 90 -29 26 2 59 -3 73 -10 14 -7 31 -13 38 -13 17 0 142 -99 143
-113 1 -7 1 -15 0 -20 0 -4 4 -6 10 -5 7 2 17 -20 23 -47 12 -48 51 -115 68
-115 4 0 7 -3 7 -7 -3 -18 14 -72 21 -68 12 7 33 -121 34 -200 1 -199 -4 -265
-19 -265 -8 0 -15 -7 -15 -15 0 -12 -14 -15 -60 -16 -69 -2 -60 0 -125 -18
-27 -8 -61 -21 -75 -30 -28 -17 -100 -91 -100 -103 0 -4 -6 -8 -12 -8 -40 -1
-74 -119 -56 -190 18 -69 63 -97 176 -107 56 -5 63 1 38 40 -15 22 -14 22 35
23 42 1 49 -1 49 -17 0 -11 5 -19 10 -19 6 0 10 7 10 15 0 8 4 15 9 15 5 0 14
14 21 30 10 24 19 30 41 30 16 0 29 -1 30 -2 0 -2 4 -37 8 -79 6 -57 14 -83
30 -100 11 -13 31 -45 43 -71 24 -54 38 -61 38 -20 1 23 2 25 11 9 6 -10 9
-23 6 -30 -6 -18 21 -40 43 -34 17 4 20 0 20 -24 0 -16 5 -29 10 -29 6 0 10 5
10 10 0 6 7 10 15 10 8 0 15 -7 15 -15 0 -9 15 -25 34 -36 19 -11 37 -26 40
-34 3 -8 12 -15 21 -15 8 0 15 -6 15 -13 0 -8 21 -18 51 -25 27 -7 65 -23 82
-36 18 -13 65 -34 106 -46 41 -12 81 -28 88 -36 8 -8 25 -14 39 -14 14 0 27
-7 30 -15 4 -8 15 -15 26 -15 11 0 22 -8 25 -20 3 -11 12 -20 19 -20 8 0 14
-7 14 -15 0 -8 6 -12 13 -9 7 2 30 -7 51 -21 20 -14 46 -25 57 -25 14 0 25
-10 31 -28 7 -17 23 -33 40 -40 15 -5 28 -17 28 -26 0 -9 7 -16 15 -16 9 0 24
-20 35 -46 12 -26 25 -44 33 -41 9 3 13 305 15 1455 l2 1452 -1412 -1 -1413 0
-40 -50z m-65 -219 c0 -5 -4 -10 -10 -10 -5 0 -10 5 -10 10 0 6 5 10 10 10 6
0 10 -4 10 -10z m-291 -972 c1 -16 -3 -28 -8 -28 -13 0 -19 45 -13 98 l6 47 7
-45 c4 -25 8 -57 8 -72z m-445 15 c-10 -40 -14 -41 -14 -5 0 18 5 32 10 32 6
0 8 -11 4 -27z m52 5 c-3 -13 -6 -30 -6 -38 0 -13 -1 -13 -10 0 -16 24 -12 60
6 60 12 0 15 -6 10 -22z m21 -40 c-2 -13 -4 -3 -4 22 0 25 2 35 4 23 2 -13 2
-33 0 -45z m160 0 c-2 -13 -4 -3 -4 22 0 25 2 35 4 23 2 -13 2 -33 0 -45z m70
0 c-2 -13 -4 -3 -4 22 0 25 2 35 4 23 2 -13 2 -33 0 -45z m-207 -138 c0 -28
-4 -40 -14 -40 -8 0 -16 -6 -19 -12 -2 -7 -4 3 -3 22 0 19 -4 43 -8 53 -7 14
-3 17 18 17 24 0 26 -4 26 -40z m326 -6 c-30 -21 -45 -16 -16 6 14 10 27 16
30 13 3 -2 -4 -11 -14 -19z m-676 -104 c0 -5 -5 -10 -11 -10 -5 0 -7 5 -4 10
3 6 8 10 11 10 2 0 4 -4 4 -10z m616 -167 c-11 -11 -17 4 -9 23 7 18 8 18 11
1 2 -10 1 -21 -2 -24z m-36 -4 c0 -10 -4 -19 -9 -19 -12 0 -23 29 -15 41 8 14
24 0 24 -22z m2060 -236 c0 -27 -28 -44 -58 -36 l-22 5 20 25 c11 14 20 32 20
39 0 12 4 12 20 2 11 -7 20 -23 20 -35z m-2180 -263 c0 -5 -2 -10 -4 -10 -3 0
-8 5 -11 10 -3 6 -1 10 4 10 6 0 11 -4 11 -10z m414 -40 c10 -59 14 -74 35
-117 12 -23 21 -60 21 -82 0 -45 26 -120 47 -137 8 -7 17 -29 20 -50 3 -22 11
-45 17 -53 8 -11 8 -15 -1 -18 -9 -3 -8 -11 4 -29 8 -14 13 -27 10 -30 -3 -3
10 -31 29 -62 19 -32 34 -63 34 -69 0 -7 9 -22 21 -34 16 -16 18 -23 8 -35 -9
-11 -9 -17 1 -29 6 -8 9 -18 6 -23 -3 -5 4 -19 15 -30 14 -16 16 -22 6 -22
-11 0 -13 -9 -7 -42 10 -55 -5 -88 -40 -88 -20 0 -49 22 -120 92 -82 81 -98
103 -141 192 -26 56 -56 132 -65 169 -16 65 -16 70 2 110 10 23 31 63 47 88
27 44 28 48 28 199 0 144 9 185 23 100z m-439 10 c11 -17 -5 -11 -28 11 l-22
21 22 -11 c12 -6 25 -16 28 -21z m191 -159 c-9 -10 -16 -22 -15 -27 4 -19 -14
-73 -22 -68 -5 3 -6 16 -3 30 6 24 -11 35 -18 12 -3 -9 -6 -9 -12 0 -4 7 -3
12 2 12 5 0 7 12 4 27 -4 21 -2 25 11 20 9 -3 19 -2 22 3 4 6 16 10 27 10 20
0 20 -1 4 -19z m150 -61 c0 -21 -11 -26 -21 -10 -10 15 -23 12 -28 -7 -4 -14
-5 -13 -6 4 -1 16 6 23 27 26 15 2 27 5 27 6 1 0 1 -8 1 -19z m-96 -10 c0 -5
-4 -10 -10 -10 -5 0 -10 5 -10 10 0 6 5 10 10 10 6 0 10 -4 10 -10z m-32 -12
c15 -15 16 -32 2 -23 -5 3 -10 -2 -10 -12 0 -15 -2 -16 -11 -3 -9 12 -10 11
-6 -7 6 -26 -8 -31 -17 -7 -8 22 4 64 18 64 7 0 17 -5 24 -12z m1338 -338 c89
-30 121 -52 84 -58 -18 -3 -24 -14 -21 -34 0 -5 -6 -8 -15 -8 -8 0 -13 4 -10
8 3 5 -15 9 -39 9 -39 0 -43 -2 -34 -18 15 -29 11 -36 -26 -43 l-35 -7 6 -52
c5 -40 3 -56 -9 -65 -8 -7 -19 -12 -23 -11 -22 4 -34 -2 -34 -16 0 -8 -4 -15
-10 -15 -5 0 -10 7 -10 16 0 8 -4 12 -10 9 -5 -3 -10 -1 -10 5 0 7 -7 10 -15
6 -8 -3 -21 1 -29 9 -8 8 -22 15 -31 15 -10 0 -15 5 -12 13 3 8 -9 28 -25 46
-30 32 -30 34 -18 72 7 21 17 39 22 39 4 0 8 8 8 18 1 26 25 52 48 52 11 0 24
5 27 10 3 6 21 10 38 10 18 0 39 5 47 10 23 15 42 12 136 -20z m208 -47 c7
-18 -12 -35 -32 -28 -8 3 -20 5 -28 5 -8 0 -14 9 -14 20 0 16 7 20 34 20 22 0
36 -6 40 -17z m-229 -233 c3 -5 1 -10 -4 -10 -6 0 -11 5 -11 10 0 6 2 10 4 10
3 0 8 -4 11 -10z"/>
<path d="M705 1540 c-3 -5 -1 -10 4 -10 6 0 11 5 11 10 0 6 -2 10 -4 10 -3 0
-8 -4 -11 -10z"/>
<path d="M870 3669 c0 -5 5 -7 10 -4 6 3 10 8 10 11 0 2 -4 4 -10 4 -5 0 -10
-5 -10 -11z"/>
<path d="M386 3615 c-3 -8 -15 -15 -26 -15 -12 0 -18 -4 -15 -10 9 -14 16 -12
44 9 14 11 19 21 13 25 -5 3 -12 -1 -16 -9z"/>
<path d="M806 3531 c-4 -6 3 -15 14 -21 23 -12 27 2 6 19 -9 8 -16 8 -20 2z"/>
<path d="M801 3474 c0 -11 3 -14 6 -6 3 7 2 16 -1 19 -3 4 -6 -2 -5 -13z"/>
<path d="M363 3443 c9 -2 23 -2 30 0 6 3 -1 5 -18 5 -16 0 -22 -2 -12 -5z"/>
<path d="M820 3365 c0 -8 4 -15 10 -15 5 0 7 7 4 15 -4 8 -8 15 -10 15 -2 0
-4 -7 -4 -15z"/>
<path d="M710 3321 c0 -22 -5 -42 -12 -44 -8 -3 -6 -6 5 -6 14 -1 17 8 17 44
0 25 -2 45 -5 45 -3 0 -5 -18 -5 -39z"/>
<path d="M588 3273 c7 -3 16 -2 19 1 4 3 -2 6 -13 5 -11 0 -14 -3 -6 -6z"/>
<path d="M770 3276 c0 -9 30 -14 35 -6 4 6 -3 10 -14 10 -12 0 -21 -2 -21 -4z"/>
<path d="M560 3220 c0 -23 10 -26 28 -8 10 10 17 10 32 0 12 -7 20 -8 20 -2 0
5 8 10 17 10 31 0 8 7 -44 14 -49 6 -53 5 -53 -14z"/>
<path d="M780 3210 c-9 -6 -10 -10 -3 -10 6 0 15 5 18 10 8 12 4 12 -15 0z"/>
<path d="M462 3125 c3 -42 8 -78 11 -81 3 -3 20 -4 39 -1 l33 3 -32 8 -33 9 0
68 c0 45 -4 69 -11 69 -8 0 -10 -23 -7 -75z"/>
<path d="M510 3160 c0 -22 5 -40 10 -40 6 0 10 18 10 40 0 22 -4 40 -10 40 -5
0 -10 -18 -10 -40z"/>
<path d="M270 3160 c0 -5 5 -10 10 -10 6 0 10 5 10 10 0 6 -4 10 -10 10 -5 0
-10 -4 -10 -10z"/>
<path d="M195 3140 c-9 -15 -1 -23 21 -18 15 3 16 4 1 16 -11 9 -17 10 -22 2z"/>
<path d="M108 3123 c7 -3 16 -2 19 1 4 3 -2 6 -13 5 -11 0 -14 -3 -6 -6z"/>
<path d="M320 3080 c0 -29 4 -40 15 -40 11 0 15 11 15 40 0 29 -4 40 -15 40
-11 0 -15 -11 -15 -40z"/>
<path d="M420 3094 c0 -14 4 -23 10 -19 6 3 10 15 10 26 0 10 -4 19 -10 19 -5
0 -10 -12 -10 -26z"/>
<path d="M710 3078 l1 -43 19 24 c26 31 26 61 0 61 -17 0 -20 -7 -20 -42z"/>
<path d="M560 2976 c0 -9 -5 -16 -11 -16 -5 0 -7 -5 -3 -11 4 -7 9 -7 13 -2 3
6 12 12 20 14 10 4 10 7 -3 18 -14 11 -16 11 -16 -3z"/>
<path d="M450 2941 c0 -29 16 -34 40 -14 28 24 25 33 -10 33 -23 0 -30 -5 -30
-19z"/>
<path d="M220 2896 c0 -10 9 -16 25 -16 14 0 25 5 25 10 0 6 -4 10 -9 10 -5 0
-16 3 -25 6 -11 4 -16 1 -16 -10z"/>
<path d="M0 2840 c0 -19 3 -21 12 -12 9 9 9 15 0 24 -9 9 -12 7 -12 -12z"/>
<path d="M80 2840 c0 -5 18 -10 40 -10 22 0 40 5 40 10 0 6 -18 10 -40 10 -22
0 -40 -4 -40 -10z"/>
<path d="M110 2790 c0 -5 -7 -10 -15 -10 -8 0 -15 -4 -15 -10 0 -14 13 -13 28
2 9 9 15 9 24 0 15 -15 28 -16 28 -2 0 6 -7 10 -15 10 -8 0 -15 5 -15 10 0 6
-4 10 -10 10 -5 0 -10 -4 -10 -10z"/>
<path d="M110 2685 c0 -38 3 -45 20 -45 17 0 20 7 20 39 0 26 -5 41 -16 45
-24 9 -24 9 -24 -39z"/>
<path d="M30 2710 c0 -5 5 -10 10 -10 6 0 10 5 10 10 0 6 -4 10 -10 10 -5 0
-10 -4 -10 -10z"/>
<path d="M796 2487 c-9 -13 -15 -43 -14 -71 1 -48 1 -49 13 -19 7 16 24 42 39
58 14 15 26 34 26 41 0 23 -48 16 -64 -9z"/>
<path d="M1887 2494 c-6 -7 -32 -12 -97 -18 -52 -5 -51 -16 4 -36 26 -11 54
-27 61 -38 8 -10 32 -24 54 -32 22 -7 38 -17 35 -22 -3 -5 -11 -8 -18 -5 -6 2
-47 -1 -91 -8 -75 -10 -77 -12 -42 -19 20 -4 37 -11 37 -15 0 -9 -167 -34
-207 -32 -27 1 -30 -11 -8 -29 12 -10 24 -11 53 -2 29 9 41 9 59 -4 24 -15 31
-34 13 -34 -5 0 -10 -4 -10 -9 0 -6 25 -18 55 -27 l54 -17 25 26 c13 14 26 32
29 39 7 20 49 -22 44 -44 -3 -10 0 -21 7 -26 22 -13 27 -55 9 -75 -15 -16 -15
-19 -3 -27 23 -15 53 -12 80 7 40 28 80 74 80 93 0 10 10 20 24 24 32 8 40 52
14 78 -38 38 2 74 64 57 33 -9 43 10 22 40 -9 12 -13 29 -10 39 3 9 -1 31 -9
47 l-13 30 -1 -29 c-1 -24 -3 -26 -15 -16 -8 6 -16 21 -18 32 -4 26 -28 36
-28 12 0 -16 -2 -16 -22 3 -13 11 -41 23 -63 27 -70 12 -161 17 -168 10z
m-117 -254 c0 -5 -4 -10 -10 -10 -5 0 -10 5 -10 10 0 6 5 10 10 10 6 0 10 -4
10 -10z"/>
<path d="M2250 2349 c0 -11 5 -17 10 -14 6 3 10 13 10 21 0 8 -4 14 -10 14 -5
0 -10 -9 -10 -21z"/>
<path d="M1673 2323 c9 -2 23 -2 30 0 6 3 -1 5 -18 5 -16 0 -22 -2 -12 -5z"/>
<path d="M874 2286 c-32 -32 -33 -36 -22 -67 19 -59 30 -64 44 -24 12 36 50
73 68 67 5 -2 6 7 2 20 -3 13 -6 26 -6 31 0 21 -55 4 -86 -27z"/>
<path d="M455 2250 c-3 -5 1 -10 9 -10 9 0 16 5 16 10 0 6 -4 10 -9 10 -6 0
-13 -4 -16 -10z"/>
<path d="M731 2174 c0 -11 3 -14 6 -6 3 7 2 16 -1 19 -3 4 -6 -2 -5 -13z"/>
<path d="M190 2150 c0 -5 5 -10 10 -10 6 0 10 5 10 10 0 6 -4 10 -10 10 -5 0
-10 -4 -10 -10z"/>
<path d="M240 2145 c0 -8 2 -15 4 -15 2 0 6 7 10 15 3 8 1 15 -4 15 -6 0 -10
-7 -10 -15z"/>
<path d="M632 1930 c0 -14 2 -19 5 -12 2 6 2 18 0 25 -3 6 -5 1 -5 -13z"/>
<path d="M750 1930 c0 -5 5 -10 11 -10 5 0 7 5 4 10 -3 6 -8 10 -11 10 -2 0
-4 -4 -4 -10z"/>
<path d="M2788 1695 c-3 -14 -1 -25 3 -25 5 0 9 11 9 25 0 14 -2 25 -4 25 -2
0 -6 -11 -8 -25z"/>
</g>
</svg>
